<?xml version="1.0" encoding="utf-8"?>
<!-- Generator: Adobe Illustrator 26.5.0, SVG Export Plug-In . SVG Version: 6.00 Build 0)  -->
<svg version="1.1" xmlns="http://www.w3.org/2000/svg" xmlns:xlink="http://www.w3.org/1999/xlink" x="0px" y="0px"
	 viewBox="0 0 515 170" style="enable-background:new 0 0 515 170;" xml:space="preserve">
<style type="text/css">
	.st0{font-family:'TitilliumWeb-Black';}
	.st1{font-size:90px;}
</style>
<g id="KEI_CHAN">
	<text transform="matrix(1 0 0 1 22 99.5)" class="st0 st1">KEI CHAN</text>
</g>
<g id="FRONT-END_WEB_DEVELOPER">
	<g>
		<g>
			<path d="M63.28,129.5v-11.2h6.77v1.22h-5.42v3.76h4.99v1.22h-4.99v5.01H63.28z"/>
			<path d="M79.92,129.5v-11.2h4.53c0.69,0,1.3,0.12,1.83,0.36c0.53,0.24,0.94,0.58,1.24,1.02c0.3,0.44,0.45,0.97,0.45,1.59v0.18
				c0,0.74-0.18,1.32-0.53,1.74s-0.77,0.71-1.25,0.86v0.22c0.38,0.01,0.7,0.14,0.95,0.38c0.25,0.24,0.38,0.6,0.38,1.08v3.76h-1.33
				v-3.6c0-0.32-0.09-0.57-0.26-0.74c-0.18-0.17-0.44-0.26-0.79-0.26h-3.87v4.59H79.92z M81.26,123.69h3.06
				c0.74,0,1.3-0.18,1.7-0.54s0.6-0.86,0.6-1.5v-0.11c0-0.64-0.2-1.14-0.59-1.5c-0.4-0.36-0.97-0.54-1.71-0.54h-3.06V123.69z"/>
			<path d="M102.08,129.72c-1.33,0-2.4-0.39-3.19-1.16c-0.79-0.77-1.19-1.9-1.19-3.38v-2.56c0-1.48,0.4-2.61,1.19-3.38
				c0.79-0.77,1.86-1.16,3.19-1.16c1.34,0,2.41,0.39,3.21,1.16c0.79,0.77,1.19,1.9,1.19,3.38v2.56c0,1.48-0.4,2.61-1.19,3.38
				C104.49,129.34,103.42,129.72,102.08,129.72z M102.08,128.52c0.97,0,1.72-0.29,2.26-0.87c0.53-0.58,0.8-1.39,0.8-2.42v-2.66
				c0-1.04-0.27-1.84-0.8-2.42c-0.53-0.58-1.29-0.87-2.26-0.87c-0.96,0-1.71,0.29-2.24,0.87c-0.53,0.58-0.8,1.39-0.8,2.42v2.66
				c0,1.04,0.27,1.84,0.8,2.42C100.37,128.23,101.12,128.52,102.08,128.52z"/>
			<path d="M116.72,129.5v-11.2h2.61l3.9,10.35h0.21V118.3h1.33v11.2h-2.61l-3.89-10.37h-0.22v10.37H116.72z"/>
			<path d="M138.1,129.5v-9.98h-3.6v-1.22h8.54v1.22h-3.6v9.98H138.1z"/>
			<path d="M152.74,125.96v-1.17h4.74v1.17H152.74z"/>
			<path d="M168.03,129.5v-11.2h6.9v1.22h-5.55v3.74h5.1v1.22h-5.1v3.81h5.63v1.22H168.03z"/>
			<path d="M185.04,129.5v-11.2h2.61l3.9,10.35h0.21V118.3h1.33v11.2h-2.61l-3.89-10.37h-0.22v10.37H185.04z"/>
			<path d="M203.14,129.5v-1.2h1.57v-8.8h-1.57v-1.2h4.37c1.47,0,2.61,0.37,3.42,1.12c0.81,0.75,1.21,1.89,1.21,3.44v2.08
				c0,1.56-0.4,2.71-1.21,3.45c-0.81,0.74-1.94,1.11-3.42,1.11H203.14z M206.05,128.28h1.46c1.09,0,1.91-0.27,2.46-0.8
				s0.83-1.36,0.83-2.48v-2.19c0-1.14-0.28-1.97-0.83-2.5s-1.38-0.78-2.46-0.78h-1.46V128.28z"/>
			<path d="M235.52,129.5l-1.82-11.2h1.34l1.58,10.34h0.22l2.06-10.34h2.4l2.05,10.34h0.22l1.58-10.34h1.34l-1.82,11.2h-2.4
				l-2.06-10.4H240l-2.06,10.4H235.52z"/>
			<path d="M256.38,129.5v-11.2h6.9v1.22h-5.55v3.74h5.1v1.22h-5.1v3.81h5.63v1.22H256.38z"/>
			<path d="M272.86,129.5v-1.2h1.57v-8.8h-1.57v-1.2h5.62c0.65,0,1.23,0.12,1.74,0.35s0.9,0.56,1.18,0.98
				c0.28,0.42,0.42,0.92,0.42,1.48v0.13c0,0.52-0.1,0.95-0.3,1.29c-0.2,0.34-0.44,0.6-0.72,0.78s-0.55,0.32-0.82,0.41v0.22
				c0.27,0.06,0.54,0.19,0.83,0.38s0.53,0.45,0.73,0.79c0.2,0.34,0.3,0.77,0.3,1.3v0.16c0,0.61-0.15,1.13-0.44,1.58
				c-0.29,0.44-0.69,0.78-1.2,1.01c-0.51,0.23-1.09,0.34-1.74,0.34H272.86z M275.78,123.24h2.59c0.64,0,1.15-0.16,1.54-0.49
				c0.38-0.33,0.58-0.75,0.58-1.29v-0.16c0-0.54-0.19-0.98-0.57-1.3c-0.38-0.33-0.89-0.49-1.54-0.49h-2.59V123.24z M275.78,128.28
				h2.54c0.7,0,1.24-0.17,1.62-0.5s0.56-0.78,0.56-1.34v-0.14c0-0.57-0.19-1.01-0.56-1.34c-0.37-0.33-0.91-0.5-1.62-0.5h-2.54
				V128.28z"/>
			<path d="M303.55,129.5v-1.2h1.57v-8.8h-1.57v-1.2h4.37c1.47,0,2.61,0.37,3.42,1.12c0.8,0.75,1.21,1.89,1.21,3.44v2.08
				c0,1.56-0.4,2.71-1.21,3.45c-0.81,0.74-1.94,1.11-3.42,1.11H303.55z M306.46,128.28h1.46c1.09,0,1.91-0.27,2.46-0.8
				s0.83-1.36,0.83-2.48v-2.19c0-1.14-0.28-1.97-0.83-2.5s-1.38-0.78-2.46-0.78h-1.46V128.28z"/>
			<path d="M322.69,129.5v-11.2h6.9v1.22h-5.55v3.74h5.1v1.22h-5.1v3.81h5.63v1.22H322.69z"/>
			<path d="M342.19,129.5l-3.38-11.2h1.39l3.06,10.38h0.21l3.06-10.38h1.39l-3.38,11.2H342.19z"/>
			<path d="M357.6,129.5v-11.2h6.9v1.22h-5.55v3.74h5.1v1.22h-5.1v3.81h5.63v1.22H357.6z"/>
			<path d="M374.61,129.5v-11.2h1.34v9.98h5.66v1.22H374.61z"/>
			<path d="M395.41,129.72c-1.33,0-2.4-0.39-3.19-1.16c-0.79-0.77-1.19-1.9-1.19-3.38v-2.56c0-1.48,0.4-2.61,1.19-3.38
				c0.79-0.77,1.86-1.16,3.19-1.16c1.34,0,2.41,0.39,3.21,1.16c0.79,0.77,1.19,1.9,1.19,3.38v2.56c0,1.48-0.4,2.61-1.19,3.38
				C397.82,129.34,396.75,129.72,395.41,129.72z M395.41,128.52c0.97,0,1.72-0.29,2.26-0.87c0.53-0.58,0.8-1.39,0.8-2.42v-2.66
				c0-1.04-0.27-1.84-0.8-2.42c-0.53-0.58-1.29-0.87-2.26-0.87c-0.96,0-1.71,0.29-2.24,0.87c-0.53,0.58-0.8,1.39-0.8,2.42v2.66
				c0,1.04,0.27,1.84,0.8,2.42C393.7,128.23,394.45,128.52,395.41,128.52z"/>
			<path d="M410.05,129.5v-11.2h4.29c0.67,0,1.27,0.13,1.8,0.39c0.53,0.26,0.95,0.63,1.26,1.11c0.31,0.48,0.46,1.06,0.46,1.74v0.21
				c0,0.67-0.16,1.25-0.47,1.74s-0.74,0.86-1.27,1.11c-0.53,0.26-1.12,0.38-1.78,0.38h-2.94v4.51H410.05z M411.39,123.77h2.8
				c0.71,0,1.28-0.18,1.7-0.54s0.62-0.86,0.62-1.51v-0.16c0-0.65-0.21-1.16-0.62-1.51c-0.41-0.36-0.98-0.54-1.7-0.54h-2.8V123.77z"
				/>
			<path d="M427.66,129.5v-11.2h6.9v1.22h-5.55v3.74h5.1v1.22h-5.1v3.81h5.63v1.22H427.66z"/>
			<path d="M444.67,129.5v-11.2h4.53c0.69,0,1.3,0.12,1.83,0.36c0.53,0.24,0.94,0.58,1.24,1.02c0.3,0.44,0.45,0.97,0.45,1.59v0.18
				c0,0.74-0.18,1.32-0.53,1.74c-0.35,0.43-0.77,0.71-1.25,0.86v0.22c0.38,0.01,0.7,0.14,0.95,0.38s0.38,0.6,0.38,1.08v3.76h-1.33
				v-3.6c0-0.32-0.09-0.57-0.26-0.74s-0.44-0.26-0.79-0.26h-3.87v4.59H444.67z M446.02,123.69h3.06c0.74,0,1.3-0.18,1.7-0.54
				c0.4-0.36,0.6-0.86,0.6-1.5v-0.11c0-0.64-0.2-1.14-0.59-1.5s-0.96-0.54-1.71-0.54h-3.06V123.69z"/>
		</g>
	</g>
</g>
</svg>
